<svg width="24" height="24" viewBox="0 0 24 24" fill="none" xmlns="http://www.w3.org/2000/svg">
<path d="M20.2404 15.7745L19.1344 13.9285C18.7154 13.2295 18.4944 12.4295 18.4944 11.6165V8.9895C18.4944 5.4105 15.5804 2.49951 11.9994 2.49951C8.41841 2.49951 5.5044 5.4105 5.5044 8.9895V11.6165C5.5044 12.4305 5.2834 13.2295 4.8644 13.9285L3.75839 15.7745C3.42039 16.3375 3.41241 17.0145 3.73641 17.5865C4.06041 18.1585 4.64639 18.5005 5.30339 18.5005H9.56639C9.53239 18.6655 9.5004 18.8315 9.5004 19.0005C9.5004 20.3785 10.6224 21.5005 12.0004 21.5005C13.3784 21.5005 14.5004 20.3785 14.5004 19.0005C14.5004 18.8315 14.4684 18.6655 14.4344 18.5005H18.6974C19.3554 18.5005 19.9414 18.1595 20.2654 17.5865C20.5864 17.0145 20.5784 16.3375 20.2404 15.7745ZM13.4984 18.9995C13.4984 19.8265 12.8254 20.4995 11.9984 20.4995C11.1714 20.4995 10.4984 19.8265 10.4984 18.9995C10.4984 18.8275 10.5384 18.6605 10.5954 18.4995H13.4014C13.4584 18.6605 13.4984 18.8265 13.4984 18.9995ZM19.3924 17.0935C19.2484 17.3475 18.9874 17.4995 18.6954 17.4995H5.30139C5.00939 17.4995 4.7484 17.3475 4.6044 17.0935C4.4604 16.8395 4.4644 16.5395 4.6144 16.2895L5.7204 14.4435C6.2324 13.5895 6.50341 12.6125 6.50341 11.6175V8.99051C6.50341 5.96351 8.9684 3.50052 11.9984 3.50052C15.0284 3.50052 17.4934 5.96351 17.4934 8.99051V11.6175C17.4934 12.6125 17.7644 13.5895 18.2764 14.4435L19.3824 16.2895C19.5324 16.5385 19.5364 16.8395 19.3924 17.0935Z" fill="#41416E"/>
</svg>
