<svg width="25" height="24" viewBox="0 0 25 24" fill="none" xmlns="http://www.w3.org/2000/svg">
<path fill-rule="evenodd" clip-rule="evenodd" d="M12.5584 21.6618C8.86659 21.6618 5.71387 21.0873 5.71387 18.7865C5.71387 16.4858 8.84659 14.3618 12.5584 14.3618C16.2502 14.3618 19.403 16.4652 19.403 18.766C19.403 21.0658 16.2702 21.6618 12.5584 21.6618Z" stroke="#7F8489" stroke-width="1.5" stroke-linecap="round" stroke-linejoin="round"/>
<path fill-rule="evenodd" clip-rule="evenodd" d="M12.5514 11.1735C14.9741 11.1735 16.9377 9.2099 16.9377 6.78718C16.9377 4.36445 14.9741 2.3999 12.5514 2.3999C10.1286 2.3999 8.16409 4.36445 8.16409 6.78718C8.15591 9.20172 10.1059 11.1654 12.5205 11.1735C12.5314 11.1735 12.5414 11.1735 12.5514 11.1735Z" stroke="#7F8489" stroke-width="1.5" stroke-linecap="round" stroke-linejoin="round"/>
</svg>
